# xmcd
# 
# Track frame offsets:
#     150
#     7108
#     48394
#     78822
#     117104
#     145870
# 
# Disc length: 2636
# 
# Revision: 0
# Processed by: cddbd v1.5.2PL0 Copyright (c) Steve Scherf et al.
# Submitted via: fre:ac v1.0.17
# 
DISCID=430a4a06
DTITLE=Nidafell - In Excelsis... (2000)
DYEAR=0
DGENRE=
TTITLE0=Stana (Prelude)
TTITLE1=The Fragrance Of The Black Orchid
TTITLE2=Auf Dem Grab Liegt Noch Schnee
TTITLE3=Aliciania... In Loving Memory
TTITLE4=Frozen Chalice
TTITLE5=The Dark Gape Of Loneliness
EXTD=
EXTT0=
EXTT1=
EXTT2=
EXTT3=
EXTT4=
EXTT5=
PLAYORDER=
